<?xml version="1.0" standalone="no"?>
<!DOCTYPE svg PUBLIC "-//W3C//DTD SVG 20010904//EN"
 "http://www.w3.org/TR/2001/REC-SVG-20010904/DTD/svg10.dtd">
<svg version="1.0" xmlns="http://www.w3.org/2000/svg"
 width="1862.000000pt" height="1842.000000pt" viewBox="0 0 1862.000000 1842.000000"
 preserveAspectRatio="xMidYMid meet">

<g transform="translate(0.000000,1842.000000) scale(0.100000,-0.100000)"
fill="#000000" stroke="none">
<path d="M1465 13604 c11 -8 232 -182 492 -387 l472 -372 1 -1381 0 -1381
-107 -7 c-613 -38 -1003 -325 -1212 -894 -17 -46 -31 -90 -31 -98 0 -8 25 7
63 37 155 126 383 254 571 319 189 65 499 106 659 86 l57 -7 0 -149 0 -149
-33 -5 c-17 -3 -79 -13 -137 -22 -293 -45 -589 -145 -802 -270 -108 -63 -107
-62 -58 -133 22 -34 42 -61 44 -61 2 0 64 31 137 69 156 81 275 131 412 171
102 31 296 73 385 85 l52 7 0 -1449 0 -1448 -397 -300 c-218 -165 -439 -333
-491 -372 l-95 -73 3617 0 3618 0 -142 148 c-160 165 -329 358 -445 507 -284
363 -467 762 -618 1348 l-33 127 -39 -72 c-53 -98 -389 -679 -433 -748 -223
-351 -541 -583 -944 -689 -344 -92 -958 -151 -1565 -151 l-183 0 0 1585 0
1585 703 0 702 0 -81 80 -81 80 -702 0 -701 0 0 -1665 0 -1665 -210 0 -210 0
0 1815 0 1815 887 -2 887 -3 411 -528 410 -527 3 690 c1 379 1 1000 0 1378
l-3 689 -411 -566 -410 -566 -597 -3 -597 -2 0 1229 0 1229 73 6 c189 15 731
28 992 23 568 -12 711 -41 972 -198 100 -61 315 -214 492 -352 69 -53 127 -95
129 -93 2 3 -23 44 -56 93 -223 332 -468 529 -772 623 -386 119 -1041 150
-1835 87 l-150 -12 -3 -1317 -2 -1318 -210 0 -210 0 0 1485 c0 1180 3 1487 13
1490 28 10 490 26 907 32 753 10 1156 -27 1501 -138 201 -64 324 -143 477
-304 184 -195 374 -507 538 -882 27 -62 51 -109 55 -105 3 4 18 41 34 82 237
629 622 1294 1039 1794 36 43 66 80 66 82 0 2 -1549 4 -3442 4 -3061 -1 -3441
-2 -3423 -16z"/>
<path d="M9631 13543 c341 -618 673 -1264 838 -1633 46 -102 93 -204 105 -228
l22 -43 43 113 c133 344 333 640 562 833 452 379 853 465 2254 482 475 6 974
-5 1147 -25 l56 -7 -126 -183 -126 -184 -71 6 c-117 11 -713 26 -995 26 -288
0 -662 -14 -860 -30 -533 -46 -816 -168 -1118 -485 -169 -177 -294 -387 -372
-622 -61 -186 -61 -176 15 -257 36 -38 67 -67 68 -65 2 2 17 55 35 118 43 150
111 323 174 441 215 405 480 578 1023 669 346 59 669 75 1295 67 565 -7 693
-13 686 -31 -2 -7 -1078 -1624 -2390 -3594 l-2385 -3581 3674 0 3673 0 -93
124 c-343 456 -672 1081 -986 1871 l-67 169 -75 -154 c-175 -359 -413 -718
-578 -875 -295 -279 -716 -470 -1208 -546 -105 -16 -216 -21 -671 -29 -300 -6
-676 -9 -837 -8 l-292 3 1835 2745 c1010 1510 2128 3182 2486 3717 l649 972
-56 77 c-31 42 -59 73 -62 70 -3 -3 -1145 -1710 -2538 -3793 l-2532 -3788
-207 -3 -207 -2 314 467 c390 581 4366 6521 4655 6956 l212 317 -3506 0 -3506
0 43 -77z"/>
<path d="M8510 13242 c-414 -522 -746 -1062 -1011 -1646 l-59 -128 51 -65 c29
-35 55 -61 60 -56 4 4 24 51 45 103 156 393 523 1004 951 1581 51 70 93 130
93 135 0 7 -80 135 -84 133 0 0 -21 -26 -46 -57z"/>
<path d="M6590 9665 l0 -1425 80 -40 80 -40 -2 1427 -3 1428 -70 37 c-38 21
-73 38 -77 38 -5 0 -8 -641 -8 -1425z"/>
<path d="M16180 7426 c0 -2 27 -70 59 -152 254 -642 599 -1248 1007 -1769 47
-60 88 -116 91 -123 3 -7 -46 -102 -108 -212 l-114 -200 -3704 -2 -3703 -3 66
-82 67 -83 3687 0 3688 0 162 285 c89 156 162 287 162 290 0 4 -31 43 -68 88
-426 511 -817 1175 -1024 1742 -44 121 -57 146 -78 154 -14 5 -62 23 -107 40
-46 17 -83 29 -83 27z"/>
<path d="M7920 7200 c0 -18 93 -227 156 -350 234 -462 558 -894 994 -1325 148
-147 151 -150 138 -176 -7 -14 -56 -105 -108 -202 l-95 -177 -3536 -2 -3537
-3 51 -82 50 -83 3527 0 3526 0 166 286 167 287 -199 206 c-491 510 -776 894
-1003 1352 -90 182 -106 207 -132 216 -16 6 -60 22 -97 36 -38 14 -68 22 -68
17z"/>
</g>
</svg>
