<?xml version="1.0" standalone="no"?>
<!DOCTYPE svg PUBLIC "-//W3C//DTD SVG 20010904//EN"
 "http://www.w3.org/TR/2001/REC-SVG-20010904/DTD/svg10.dtd">
<svg version="1.0" xmlns="http://www.w3.org/2000/svg"
 width="2417.000000pt" height="1293.000000pt" viewBox="0 0 2417.000000 1293.000000"
 preserveAspectRatio="xMidYMid meet">

<g transform="translate(0.000000,1293.000000) scale(0.100000,-0.100000)"
fill="#000000" stroke="none">
<path d="M1269 12359 l721 -570 0 -2018 0 -2018 -133 -6 c-627 -30 -1108 -254
-1442 -672 -139 -173 -280 -440 -365 -689 -27 -82 -50 -150 -50 -153 0 -2 34
26 75 62 477 416 1055 646 1630 649 94 1 196 -3 228 -7 l57 -8 0 -225 c0 -123
-3 -224 -7 -224 -27 0 -339 -53 -438 -75 -302 -65 -568 -156 -810 -277 -112
-56 -315 -181 -315 -193 0 -5 113 -178 126 -194 2 -2 34 14 71 36 277 164 641
308 973 383 102 23 366 70 393 70 4 0 6 -951 5 -2112 l-3 -2113 -715 -545
-715 -545 2653 -3 c1458 -1 3844 -1 5301 0 l2649 3 -201 210 c-762 797 -1071
1259 -1342 2005 -91 252 -147 440 -257 864 l-10 40 -51 -95 c-100 -186 -611
-1056 -678 -1154 -309 -454 -700 -749 -1210 -914 -475 -153 -1234 -237 -2331
-257 l-368 -7 0 2311 0 2312 1032 0 1033 0 -125 125 -125 125 -1027 0 -1028 0
0 -2435 0 -2435 -300 0 -300 0 0 2660 0 2660 1292 -2 1292 -3 605 -788 606
-787 3 1015 c1 558 1 1472 0 2030 l-3 1016 -605 -828 -606 -828 -872 -3 -872
-2 2 1797 3 1798 305 16 c739 40 1073 47 1475 29 374 -16 595 -41 765 -86 225
-59 546 -254 1010 -614 275 -213 341 -262 346 -257 2 2 -36 64 -85 138 -262
392 -561 673 -879 826 -267 128 -663 213 -1192 255 -214 17 -1052 17 -1330 0
-227 -14 -539 -39 -612 -48 l-48 -6 0 -1924 0 -1924 -300 0 -300 0 0 2174 0
2174 63 6 c253 23 1384 50 1812 42 655 -10 1107 -56 1474 -147 403 -101 619
-223 884 -498 273 -286 533 -713 793 -1303 38 -87 72 -158 75 -158 3 0 27 57
54 128 198 525 538 1208 840 1687 193 307 457 673 674 934 61 73 111 135 111
137 0 2 -2273 4 -5051 4 l-5051 0 721 -571z"/>
<path d="M12500 12925 c0 -3 69 -130 154 -282 498 -901 893 -1677 1176 -2313
43 -96 93 -206 110 -243 l33 -68 58 153 c116 299 288 619 460 853 86 116 328
362 447 455 256 200 547 352 842 439 335 99 847 158 1660 191 424 17 1360 23
1710 11 389 -13 715 -30 751 -39 25 -7 21 -13 -157 -272 -180 -263 -182 -265
-215 -263 -376 26 -1727 41 -2189 24 -896 -33 -1280 -100 -1653 -287 -179 -91
-340 -208 -511 -374 -292 -283 -485 -586 -616 -967 -41 -117 -80 -258 -80
-286 0 -8 43 -63 97 -121 l96 -106 43 147 c212 737 526 1197 967 1419 350 177
817 273 1592 326 323 22 2115 11 2115 -13 0 -5 -1577 -2376 -3504 -5269
l-3505 -5260 5389 0 5390 0 -127 167 c-526 699 -1046 1695 -1508 2890 l-47
123 -133 -268 c-148 -297 -248 -472 -400 -702 -282 -424 -460 -612 -777 -820
-351 -231 -832 -417 -1292 -500 -243 -44 -358 -52 -861 -61 -677 -12 -1905
-23 -1905 -17 0 3 1640 2456 3644 5452 l3645 5447 -81 110 c-44 60 -83 111
-87 113 -3 2 -1680 -2500 -3726 -5560 l-3720 -5563 -298 -1 c-236 0 -297 3
-291 13 4 6 1705 2546 3779 5642 2074 3097 3780 5642 3789 5658 l18 27 -5141
0 c-2827 0 -5141 -2 -5141 -5z"/>
<path d="M10891 12352 c-583 -728 -1113 -1595 -1479 -2420 l-73 -164 77 -94
c42 -52 79 -94 83 -94 3 0 21 39 40 88 252 644 774 1519 1443 2421 l129 173
-62 94 c-34 52 -65 96 -68 98 -3 2 -44 -44 -90 -102z"/>
<path d="M8090 7138 l0 -2093 110 -57 c60 -32 113 -58 119 -58 8 0 11 616 11
2089 l0 2089 -120 62 -120 61 0 -2093z"/>
<path d="M22160 3856 c0 -2 40 -104 89 -227 287 -721 617 -1353 1030 -1972
150 -224 359 -512 501 -687 42 -52 79 -100 83 -106 4 -7 -69 -144 -161 -305
l-168 -294 -5432 -5 -5433 -5 98 -128 97 -127 5411 0 5410 0 232 413 c127 226
235 420 238 429 5 12 -15 43 -67 105 -276 326 -646 847 -888 1253 -275 460
-534 1005 -685 1445 -16 44 -33 85 -39 92 -6 7 -77 37 -157 67 -142 54 -159
60 -159 52z"/>
<path d="M10071 3443 c353 -851 921 -1657 1701 -2413 l181 -176 -159 -294
-159 -295 -5187 -5 -5186 -5 73 -125 73 -125 5174 -3 5174 -2 246 427 246 428
-272 275 c-377 382 -620 661 -883 1014 -291 390 -555 829 -714 1186 -23 52
-43 96 -44 98 -4 5 -289 112 -297 112 -4 0 11 -44 33 -97z"/>
</g>
</svg>
