<svg aria-hidden="true" style="position: absolute; width: 0; height: 0; overflow: hidden;" version="1.1" xmlns="http://www.w3.org/2000/svg" xmlns:xlink="http://www.w3.org/1999/xlink">
<defs>
<symbol id="github" viewBox="0 0 32 32">
<!-- <path d="M4.825 2c-1.394 0.369-2.469 1.45-2.825 2.85-0.119 0.469-0.125 0.725-0.125 8.694v8.206h0.75v-8.175c0-8.975-0.019-8.481 0.381-9.275 0.25-0.494 0.8-1.044 1.294-1.294 0.8-0.4 0.263-0.381 9.65-0.381h8.55v-0.75l-8.606 0.006c-8.269 0-8.631 0.006-9.069 0.119z"></path> -->
<!-- <path  d="M23 2.25v0.375h1.8c1.394 0 1.881 0.019 2.156 0.094 1.156 0.3 2.025 1.169 2.325 2.325 0.144 0.537 0.144 21.375 0 21.913-0.3 1.156-1.169 2.025-2.325 2.325-0.538 0.144-21.375 0.144-21.913 0-1.156-0.3-2.025-1.169-2.325-2.325-0.069-0.269-0.094-0.738-0.094-1.906v-1.55h-0.75v1.581c0 1.375 0.019 1.65 0.125 2.069 0.356 1.406 1.444 2.494 2.85 2.85 0.475 0.125 0.713 0.125 11.15 0.125 10.413 0 10.681 0 11.15-0.125 1.406-0.356 2.494-1.444 2.85-2.85 0.125-0.475 0.125-0.712 0.125-11.15s0-10.675-0.125-11.15c-0.356-1.406-1.444-2.494-2.85-2.85-0.425-0.113-0.694-0.125-2.319-0.125h-1.831v0.375z"></path> -->
<path d="M10.537 7.325c-0.356 0.325-0.588 1.775-0.425 2.669 0.063 0.338 0.063 0.338-0.225 0.75-0.6 0.875-0.731 1.375-0.725 2.694 0.012 1.156 0.15 1.881 0.512 2.65 0.438 0.944 1.081 1.594 2.044 2.069 0.525 0.262 1.525 0.594 1.787 0.594 0.181 0 0.188 0.094 0.019 0.462-0.144 0.313-0.188 0.356-0.419 0.419-0.313 0.081-0.956 0.044-1.2-0.075-0.1-0.050-0.331-0.269-0.519-0.494-0.588-0.7-0.95-1.050-1.238-1.188-0.481-0.238-1.306-0.144-1.425 0.156-0.1 0.262-0.037 0.488 0.188 0.681 0.781 0.681 0.825 0.738 1.106 1.306 0.594 1.225 1.387 1.731 2.713 1.731h0.512l0.019 0.756c0.012 0.413 0 0.8-0.025 0.863-0.019 0.063-0.181 0.212-0.35 0.337-0.506 0.375-0.588 0.819-0.188 0.988 0.169 0.069 0.863 0.087 3.644 0.087 3.7 0 3.806-0.006 3.881-0.319 0.056-0.231-0.025-0.381-0.406-0.712l-0.369-0.319-0.031-1.762c-0.031-1.775-0.069-2.094-0.294-2.563-0.156-0.313-0.156-0.356-0.006-0.356 0.063 0 0.394-0.069 0.731-0.156 1.863-0.475 2.9-1.5 3.288-3.25 0.113-0.519 0.137-0.825 0.144-1.781 0-1.044-0.012-1.2-0.144-1.625-0.188-0.575-0.431-1.075-0.738-1.475l-0.238-0.306 0.019-0.906c0.012-0.781-0.006-0.963-0.119-1.338-0.075-0.237-0.206-0.5-0.294-0.581-0.144-0.15-0.188-0.156-0.631-0.131-0.538 0.031-1.188 0.275-2.006 0.737l-0.469 0.269-0.5-0.075c-1.25-0.188-3.225-0.144-4.106 0.088l-0.331 0.088-0.5-0.3c-1.175-0.706-2.331-1-2.688-0.681zM11.806 8.144c0.219 0.075 0.631 0.269 0.906 0.438 0.281 0.169 0.594 0.363 0.706 0.431 0.194 0.119 0.2 0.119 0.606-0.006 0.912-0.281 3.044-0.331 4.225-0.094l0.531 0.106 0.488-0.3c0.619-0.375 1.394-0.706 1.75-0.756l0.288-0.044 0.075 0.275c0.050 0.188 0.063 0.575 0.038 1.225l-0.038 0.944 0.313 0.419c0.7 0.925 0.906 1.65 0.85 3.056-0.056 1.531-0.344 2.4-1.012 3.069-0.587 0.581-1.594 0.988-2.913 1.156-0.694 0.094-0.869 0.181-0.869 0.438 0 0.137 0.063 0.231 0.275 0.406 0.556 0.45 0.663 0.981 0.663 3.25 0 1.438 0 1.438 0.156 1.675l0.163 0.231h-5.319l0.162-0.244c0.156-0.244 0.156-0.256 0.15-1.45 0-0.994-0.019-1.231-0.1-1.306-0.075-0.075-0.275-0.094-1.012-0.094-0.838 0-0.944-0.012-1.213-0.144-0.4-0.2-0.688-0.531-0.988-1.15-0.144-0.281-0.287-0.556-0.325-0.613-0.075-0.113 0.144 0.131 0.594 0.65 0.475 0.55 0.825 0.694 1.669 0.688 0.456-0.006 0.744-0.038 0.938-0.113 0.331-0.125 0.563-0.325 0.563-0.488 0-0.194 0.25-0.619 0.512-0.881 0.2-0.194 0.244-0.281 0.225-0.438-0.025-0.256-0.162-0.319-1-0.45-2.588-0.394-3.819-1.731-3.963-4.313-0.069-1.225 0.131-1.95 0.762-2.756l0.287-0.369-0.050-0.375c-0.088-0.588-0.069-1.781 0.031-2.050 0.094-0.269 0.113-0.275 0.875-0.025z"></path>
<!-- <path  d="M1.875 22.625v0.375h0.75v-0.75h-0.75v0.375z"></path> -->
</symbol>
<symbol id="email" viewBox="0 0 32 32">
<path d="M15.375 0.1c-0.156 0.056-0.363 0.163-0.469 0.231-0.1 0.075-1.131 1.056-2.281 2.181l-2.094 2.050h-2.325c-2.7 0-2.763 0.013-3.338 0.569-0.588 0.575-0.588 0.55-0.606 3.244l-0.019 2.344-1.050 1.063c-0.612 0.619-1.119 1.181-1.206 1.344l-0.144 0.281-0.038 6.15 0.144 0.125c0.231 0.219 0.562 0.163 0.706-0.125 0.081-0.144 0.094-0.644 0.094-3.025 0-1.563 0.019-2.844 0.050-2.844 0.069 0.006 10.050 9.925 10.012 9.956-0.019 0.019-2.281 1.269-5.031 2.775l-5 2.75-0.031-3.994-0.031-4-0.15-0.119c-0.188-0.156-0.475-0.15-0.631 0.006-0.125 0.125-0.125 0.181-0.113 4.831l0.019 4.7 0.144 0.269c0.219 0.413 0.55 0.744 0.937 0.931l0.356 0.175 17.975 0.031 0.15-0.15c0.2-0.2 0.2-0.438 0-0.631l-0.15-0.156h-8.831c-8.475 0-8.844-0.006-9.088-0.119-0.256-0.119-0.494-0.381-0.538-0.587-0.031-0.175 12.725-7.175 13.137-7.219 0.244-0.025 0.356 0.012 0.813 0.256 0.856 0.45 12.4 6.8 12.45 6.844 0.1 0.1-0.238 0.544-0.512 0.688-0.275 0.137-0.3 0.137-2.975 0.137-2.631 0-2.7 0-2.863 0.131-0.225 0.181-0.225 0.5 0.006 0.681 0.163 0.131 0.2 0.131 3.012 0.113l2.85-0.019 0.356-0.175c0.387-0.188 0.719-0.519 0.938-0.931l0.144-0.269v-17.188l-0.169-0.313c-0.106-0.2-0.55-0.694-1.2-1.344l-1.038-1.031v-0.606c0-0.531-0.019-0.631-0.125-0.738-0.206-0.206-0.469-0.188-0.669 0.037l-0.144 0.156v5.088l-8.5 8.5-0.394-0.206c-1.425-0.762-1.344-0.731-1.919-0.731s-0.469-0.044-1.919 0.731l-0.394 0.206-8.5-8.5v-8.363l0.156-0.275c0.1-0.162 0.256-0.319 0.406-0.394 0.244-0.125 0.369-0.125 10.256-0.125h10.012l0.256 0.15c0.144 0.081 0.319 0.263 0.4 0.4 0.119 0.219 0.137 0.338 0.137 1 0 0.65 0.019 0.769 0.125 0.9 0.156 0.206 0.306 0.244 0.55 0.138 0.256-0.106 0.281-0.225 0.25-1.225-0.019-0.731-0.038-0.869-0.175-1.144-0.219-0.45-0.656-0.862-1.081-1.025-0.344-0.125-0.462-0.131-2.688-0.131h-2.325l-2.156-2.112c-1.625-1.594-2.231-2.144-2.469-2.256-0.406-0.194-1.075-0.237-1.469-0.094zM16.425 1.031c0.15 0.063 0.825 0.694 1.919 1.769 0.925 0.919 1.694 1.688 1.706 1.712 0.012 0.031-1.806 0.050-4.044 0.050s-4.069-0.006-4.069-0.019c0-0.088 3.369-3.356 3.569-3.469 0.306-0.162 0.594-0.175 0.919-0.044zM4.25 12.887v0.831l-0.844-0.844 0.406-0.406c0.219-0.225 0.412-0.406 0.419-0.406 0.013 0 0.019 0.375 0.019 0.825zM28.169 13.294l-0.419 0.425v-1.688l0.419 0.425 0.425 0.419-0.425 0.419zM29.25 21.444v7.756l-0.2-0.125c-0.113-0.069-2.369-1.313-5.019-2.762-2.644-1.45-4.825-2.656-4.844-2.669-0.038-0.031 9.944-9.95 10.019-9.956 0.025 0 0.044 3.488 0.044 7.756z"></path>
<path d="M14.875 8.319c-1.181 0.306-2.137 0.988-2.781 1.988-1.894 2.925-0.131 6.781 3.319 7.256 0.706 0.094 0.963-0.031 0.963-0.456 0-0.256-0.231-0.394-0.787-0.469-0.656-0.087-1.113-0.262-1.688-0.65-1.581-1.056-2.1-3.162-1.2-4.881 0.294-0.556 1.031-1.281 1.594-1.569 1.519-0.762 3.3-0.469 4.438 0.731 0.669 0.706 1.019 1.5 1.019 2.3 0 0.406-0.188 1.188-0.369 1.544-0.319 0.631-1.106 0.856-1.35 0.387-0.075-0.15-0.094-0.519-0.094-2.219 0-1.95-0.006-2.037-0.125-2.156-0.188-0.188-0.519-0.169-0.681 0.037-0.075 0.094-0.131 0.238-0.131 0.319 0 0.088-0.019 0.144-0.044 0.131-0.481-0.25-0.569-0.269-1.144-0.269-0.519 0-0.631 0.025-0.906 0.169-0.931 0.488-1.475 1.662-1.281 2.787 0.3 1.8 1.975 2.744 3.238 1.825l0.269-0.194 0.294 0.306c0.363 0.369 0.644 0.475 1.163 0.438 0.769-0.063 1.444-0.606 1.75-1.412 0.613-1.6 0.4-3.031-0.644-4.344-0.625-0.787-1.5-1.344-2.531-1.606-0.656-0.169-1.637-0.162-2.287 0.006zM16.313 11.344c0.762 0.394 0.925 1.9 0.294 2.731-0.281 0.369-0.688 0.537-1.044 0.431-0.781-0.231-1.225-1.3-0.944-2.269 0.1-0.344 0.412-0.738 0.706-0.881 0.262-0.131 0.75-0.137 0.987-0.012z"></path>
</symbol>
<symbol id="mobile-phone" viewBox="0 0 32 32">
<path d="M8.512 0.1c-0.694 0.187-1.3 0.738-1.588 1.45l-0.144 0.356v28.188l0.144 0.356c0.294 0.725 0.894 1.269 1.613 1.456 0.55 0.144 14.375 0.144 14.925 0 0.719-0.188 1.319-0.731 1.613-1.456l0.144-0.356v-28.188l-0.144-0.356c-0.294-0.725-0.894-1.269-1.613-1.456-0.531-0.138-14.438-0.131-14.95 0.006zM23.5 1.106c0.194 0.106 0.406 0.281 0.525 0.444l0.194 0.275 0.038 1.925h-16.512l0.037-1.925 0.194-0.275c0.119-0.163 0.331-0.337 0.525-0.444l0.325-0.169h14.35l0.325 0.169zM24.25 15.063v10.375h-6.663c-6.706 0-6.838 0.006-6.975 0.212-0.063 0.087-0.063 0.425 0 0.512 0.137 0.206 0.269 0.212 6.981 0.212h6.663l-0.038 3.8-0.194 0.275c-0.119 0.163-0.331 0.337-0.525 0.444l-0.325 0.169h-14.35l-0.325-0.175c-0.194-0.1-0.406-0.275-0.525-0.438l-0.194-0.275-0.037-3.8h0.725c0.912 0 1.094-0.075 1.094-0.469s-0.181-0.469-1.088-0.469h-0.725v-20.75h16.5v10.375z"></path>
<path d="M13.906 1.95c-0.175 0.1-0.219 0.175-0.219 0.406 0 0.331 0.344 0.544 0.637 0.388 0.194-0.1 0.238-0.175 0.238-0.4s-0.050-0.3-0.231-0.4c-0.169-0.087-0.262-0.087-0.425 0.006z"></path>
<path d="M15.781 1.95c-0.175 0.1-0.219 0.175-0.219 0.394 0 0.413 0.156 0.469 1.375 0.469s1.375-0.056 1.375-0.469c0-0.419-0.156-0.469-1.387-0.469-0.637 0-1.063 0.031-1.144 0.075z"></path>
<path d="M15.375 27.481c-0.194 0.106-0.406 0.281-0.525 0.444-0.181 0.256-0.194 0.313-0.194 0.794s0.012 0.538 0.194 0.794c0.256 0.35 0.744 0.613 1.15 0.613s0.894-0.262 1.15-0.613c0.181-0.256 0.194-0.313 0.194-0.794s-0.012-0.538-0.194-0.794c-0.256-0.35-0.744-0.613-1.15-0.613-0.206 0-0.4 0.056-0.625 0.169zM16.206 28.319c0.181 0.1 0.231 0.175 0.231 0.4s-0.044 0.3-0.238 0.4c-0.294 0.156-0.637-0.056-0.637-0.387 0-0.231 0.044-0.306 0.219-0.406 0.162-0.094 0.256-0.094 0.425-0.006z"></path>
</symbol>
<symbol id="telegram" viewBox="0 0 32 32">
<!-- <path d="M4.825 2c-1.394 0.369-2.469 1.45-2.825 2.85-0.119 0.469-0.125 0.725-0.125 8.694v8.206h0.75v-8.175c0-8.975-0.019-8.481 0.381-9.275 0.25-0.494 0.8-1.044 1.294-1.294 0.8-0.4 0.263-0.381 9.65-0.381h8.55v-0.75l-8.606 0.006c-8.269 0-8.631 0.006-9.069 0.119z"></path> -->
<!-- <path d="M23 2.25v0.375h1.8c1.394 0 1.881 0.019 2.156 0.094 1.156 0.3 2.025 1.169 2.325 2.325 0.144 0.537 0.144 21.375 0 21.913-0.3 1.156-1.169 2.025-2.325 2.325-0.538 0.144-21.375 0.144-21.913 0-1.156-0.3-2.025-1.169-2.325-2.325-0.069-0.269-0.094-0.738-0.094-1.906v-1.55h-0.75v1.581c0 1.375 0.019 1.65 0.125 2.069 0.356 1.406 1.444 2.494 2.85 2.85 0.475 0.125 0.713 0.125 11.15 0.125 10.413 0 10.681 0 11.15-0.125 1.406-0.356 2.494-1.444 2.85-2.85 0.125-0.475 0.125-0.712 0.125-11.15s0-10.675-0.125-11.15c-0.356-1.406-1.444-2.494-2.85-2.85-0.425-0.113-0.694-0.125-2.319-0.125h-1.831v0.375z"></path> -->
<path d="M23.125 8.287c-0.569 0.225-4.363 1.688-8.438 3.256-4.075 1.563-7.5 2.912-7.606 3-0.25 0.181-0.325 0.313-0.369 0.662-0.037 0.244-0.019 0.3 0.156 0.494 0.231 0.269 0.331 0.306 2.513 1.113 0.944 0.35 1.744 0.663 1.781 0.706s0.4 1.144 0.806 2.45c0.4 1.306 0.787 2.481 0.85 2.606 0.162 0.313 0.394 0.456 0.725 0.45s0.45-0.087 1.819-1.206c0.7-0.569 1.138-0.881 1.225-0.881 0.094 0 0.906 0.55 2.137 1.45 1.1 0.794 2.106 1.512 2.244 1.594 0.462 0.262 0.969 0.131 1.181-0.313 0.094-0.206 0.956-4.269 2.538-12.006l0.644-3.119-0.113-0.213c-0.156-0.287-0.45-0.456-0.788-0.45-0.181 0-0.625 0.138-1.306 0.406zM24.481 8.894c-0.038 0.256-2.688 13.137-2.894 14.056-0.056 0.238-0.125 0.425-0.163 0.425s-0.981-0.669-2.1-1.481c-1.119-0.813-2.131-1.531-2.256-1.594-0.269-0.137-0.7-0.144-0.944-0.019-0.1 0.050-0.569 0.413-1.044 0.8s-1.012 0.825-1.2 0.975l-0.344 0.262-0.075-0.144c-0.063-0.125-0.438-1.313-1.363-4.306-0.188-0.6-0.262-0.762-0.431-0.906-0.137-0.131-0.775-0.394-2.138-0.894-1.069-0.387-1.975-0.744-2.025-0.787-0.069-0.069-0.069-0.094 0.031-0.156 0.188-0.113 16.731-6.487 16.862-6.494 0.1-0.006 0.113 0.025 0.081 0.262z"></path>
<path d="M16.656 13.6c-2.269 1.394-4.181 2.581-4.244 2.638-0.162 0.15-0.35 0.569-0.35 0.813 0 0.219 0.894 3.381 1.012 3.575 0.169 0.262 0.563 0.325 0.819 0.119 0.2-0.15 0.256-0.356 0.381-1.363 0.056-0.419 0.144-0.863 0.2-0.975 0.056-0.125 1.375-1.4 3.369-3.244 1.794-1.669 3.344-3.119 3.431-3.231 0.306-0.363 0.131-0.869-0.313-0.869-0.137 0-1.306 0.688-4.306 2.537zM18.875 13.15c0 0.019-1.1 1.050-2.438 2.294-2.2 2.038-2.456 2.3-2.625 2.644-0.131 0.262-0.2 0.519-0.225 0.837-0.025 0.25-0.063 0.462-0.081 0.475-0.019 0.019-0.194-0.512-0.375-1.163-0.313-1.087-0.331-1.206-0.25-1.344 0.050-0.087 1.269-0.881 3.025-1.956 1.619-0.994 2.944-1.813 2.956-1.813 0.006 0 0.012 0.012 0.012 0.025z"></path>
<!-- <path d="M1.875 22.625v0.375h0.75v-0.75h-0.75v0.375z"></path> -->
</symbol>
<symbol id="linkedin" viewBox="0 0 36 36">
<!-- <path d="M2 0.094c-0.938 0.231-1.688 0.994-1.913 1.938-0.131 0.563-0.131 27.375 0 27.938 0.231 0.962 0.981 1.712 1.944 1.944 0.563 0.131 27.375 0.131 27.938 0 0.962-0.231 1.712-0.981 1.944-1.944 0.069-0.319 0.087-2.125 0.087-11.481 0-8.125-0.019-11.15-0.069-11.262-0.163-0.344-0.7-0.344-0.863 0-0.050 0.112-0.069 3.131-0.069 11.238 0 12.519 0.044 11.5-0.5 12.037-0.538 0.544 0.781 0.5-14.5 0.5s-13.963 0.044-14.5-0.5c-0.544-0.538-0.5 0.781-0.5-14.5s-0.044-13.963 0.5-14.5c0.538-0.544-0.781-0.5 14.5-0.5s13.963-0.044 14.5 0.5c0.462 0.456 0.5 0.656 0.5 2.469v1.513l0.163 0.169c0.094 0.088 0.219 0.162 0.281 0.162 0.194 0 0.413-0.131 0.488-0.294 0.106-0.231 0.087-3.013-0.019-3.487-0.231-0.962-0.981-1.712-1.944-1.944-0.544-0.125-27.444-0.119-27.969 0.006z"></path> -->
<path d="M6.888 4.881c-0.688 0.131-1.45 0.731-1.788 1.394-0.656 1.319-0.088 2.925 1.256 3.55 0.763 0.356 1.688 0.313 2.425-0.113 0.294-0.169 0.775-0.656 0.95-0.963 0.406-0.7 0.444-1.65 0.094-2.394-0.525-1.125-1.706-1.719-2.938-1.475zM8.156 5.987c1.2 0.619 1.213 2.319 0.019 2.913-1.275 0.637-2.719-0.613-2.269-1.969 0.138-0.406 0.575-0.869 0.975-1.013 0.356-0.138 0.944-0.1 1.275 0.069z"></path>
<path d="M5.088 11.825c-0.075 0.031-0.169 0.131-0.206 0.213-0.050 0.113-0.069 2.231-0.069 7.487v7.331l0.162 0.169 0.169 0.163h2.294c2.225 0 2.3-0.006 2.462-0.131l0.162-0.125v-5.244c0-5.025-0.006-5.244-0.119-5.381-0.156-0.194-0.519-0.2-0.713-0.006l-0.137 0.144-0.019 4.869-0.012 4.875h-3.25v-13.438h3.244l0.037 1.887 0.181 0.156c0.144 0.119 0.225 0.15 0.375 0.119 0.387-0.075 0.412-0.162 0.412-1.569 0-1.156-0.012-1.281-0.119-1.412l-0.119-0.15-2.306-0.012c-1.506-0.006-2.344 0.012-2.431 0.056z"></path>
<path d="M12.581 11.813c-0.075 0.031-0.162 0.113-0.2 0.181-0.050 0.088-0.069 2.4-0.069 7.506v7.381l0.156 0.15 0.15 0.156h4.637l0.15-0.156 0.156-0.15v-3.625c0-3.756 0.019-4.044 0.262-4.531 0.194-0.381 0.688-0.819 1.094-0.981 0.544-0.212 1.238-0.2 1.756 0.038 0.481 0.212 0.881 0.637 1.087 1.144 0.144 0.356 0.144 0.363 0.163 4.181l0.019 3.825 0.163 0.131c0.156 0.119 0.244 0.125 2.456 0.125h2.294l0.169-0.163 0.163-0.169v-5.387c0-5.194-0.006-5.406-0.125-5.881-0.438-1.694-1.869-3.069-3.775-3.619-1.744-0.5-3.975-0.069-5.338 1.031l-0.387 0.313v-0.613c-0.006-0.631-0.044-0.744-0.294-0.875-0.163-0.088-4.469-0.1-4.688-0.012zM16.563 13.912v1.162l0.181 0.181c0.319 0.319 0.606 0.206 0.925-0.363 0.688-1.231 1.819-1.906 3.506-2.088 1.069-0.113 1.788 0.012 2.762 0.494 0.494 0.238 0.681 0.375 1.125 0.819 0.331 0.331 0.613 0.681 0.731 0.919 0.394 0.75 0.394 0.675 0.394 6.162v4.988h-3.244l-0.025-3.519c-0.019-3.337-0.025-3.531-0.15-3.894-0.625-1.856-2.6-2.706-4.369-1.875-0.556 0.262-1.188 0.844-1.45 1.337-0.375 0.7-0.387 0.825-0.387 4.556v3.394h-3.25v-13.438h3.25v1.162z"></path>
</symbol>
<symbol id="arrow-up" viewBox="0 0 24 24">
<path d="M23 12c0-3.037-1.232-5.789-3.222-7.778s-4.741-3.222-7.778-3.222-5.789 1.232-7.778 3.222-3.222 4.741-3.222 7.778 1.232 5.789 3.222 7.778 4.741 3.222 7.778 3.222 5.789-1.232 7.778-3.222 3.222-4.741 3.222-7.778zM21 12c0 2.486-1.006 4.734-2.636 6.364s-3.878 2.636-6.364 2.636-4.734-1.006-6.364-2.636-2.636-3.878-2.636-6.364 1.006-4.734 2.636-6.364 3.878-2.636 6.364-2.636 4.734 1.006 6.364 2.636 2.636 3.878 2.636 6.364zM13 16v-5.586l2.293 2.293c0.391 0.391 1.024 0.391 1.414 0s0.391-1.024 0-1.414l-4-4c-0.096-0.096-0.206-0.168-0.324-0.217-0.122-0.051-0.253-0.076-0.383-0.076-0.256 0-0.512 0.098-0.707 0.293l-4 4c-0.391 0.391-0.391 1.024 0 1.414s1.024 0.391 1.414 0l2.293-2.293v5.586c0 0.552 0.448 1 1 1s1-0.448 1-1z"></path>
</symbol>
</defs>
</svg>
